<?xml version="1.0" encoding="UTF-8" standalone="no"?>
<svg
   width="14"
   height="14"
   viewBox="0 0 14 14"
   fill="none"
   version="1.1"
   id="svg4"
   sodipodi:docname="arrow.svg"
   inkscape:version="1.2.2 (732a01da63, 2022-12-09)"
   xmlns:inkscape="http://www.inkscape.org/namespaces/inkscape"
   xmlns:sodipodi="http://sodipodi.sourceforge.net/DTD/sodipodi-0.dtd"
   xmlns="http://www.w3.org/2000/svg"
   xmlns:svg="http://www.w3.org/2000/svg">
  <defs
     id="defs8" />
  <sodipodi:namedview
     id="namedview6"
     pagecolor="#505050"
     bordercolor="#eeeeee"
     borderopacity="1"
     inkscape:showpageshadow="0"
     inkscape:pageopacity="0"
     inkscape:pagecheckerboard="0"
     inkscape:deskcolor="#505050"
     showgrid="false"
     inkscape:zoom="29.321429"
     inkscape:cx="5.3373934"
     inkscape:cy="7.4007308"
     inkscape:window-width="1920"
     inkscape:window-height="986"
     inkscape:window-x="-11"
     inkscape:window-y="1609"
     inkscape:window-maximized="1"
     inkscape:current-layer="svg4" />
  <path
     style="color:#000000;fill:#fcfcfc;stroke-linecap:round;stroke-linejoin:round;-inkscape-stroke:none"
     d="M 4.4042969,0.1875 A 0.75,0.75 0 0 0 3.6269531,0.90820313 0.75,0.75 0 0 0 4.3476562,1.6875 L 10.810547,1.9277344 0.71289062,12.025391 a 0.75,0.75 0 0 0 0,1.060547 0.75,0.75 0 0 0 1.06054688,0 L 11.871094,2.9882813 12.113281,9.4511719 a 0.75,0.75 0 0 0 0.777344,0.7207031 0.75,0.75 0 0 0 0.720703,-0.7773437 L 13.306641,1.2148437 a 0.75,0.75 0 0 0 -0.0059,-0.00586 0.75,0.75 0 0 0 -0.02148,-0.1015625 0.75,0.75 0 0 0 -0.02539,-0.13476565 0.75,0.75 0 0 0 -0.08398,-0.13476562 0.75,0.75 0 0 0 -0.07617,-0.11523438 0.75,0.75 0 0 0 -0.0078,-0.009766 0.75,0.75 0 0 0 -0.01758,-0.007813 0.75,0.75 0 0 0 -0.484375,-0.21093749 h -0.02539 l -0.002,-0.001953 a 0.75,0.75 0 0 0 -0.002,0 z"
     id="path2" />
</svg>
