<svg width="28" height="28" viewBox="0 0 28 28" fill="none" xmlns="http://www.w3.org/2000/svg">
<path d="M14 0C11.2311 0 8.52431 0.821085 6.22202 2.35942C3.91973 3.89776 2.12532 6.08426 1.06569 8.64243C0.00606633 11.2006 -0.271181 14.0155 0.269012 16.7313C0.809205 19.447 2.14258 21.9416 4.10051 23.8995C6.05844 25.8574 8.553 27.1908 11.2687 27.731C13.9845 28.2712 16.7994 27.9939 19.3576 26.9343C21.9157 25.8747 24.1022 24.0803 25.6406 21.778C27.1789 19.4757 28 16.7689 28 14C27.9966 10.288 26.5205 6.72907 23.8957 4.10431C21.2709 1.47954 17.712 0.00344286 14 0ZM14 26.2663C11.574 26.2663 9.20241 25.5468 7.18524 24.199C5.16806 22.8512 3.59587 20.9355 2.66746 18.6941C1.73906 16.4527 1.49615 13.9864 1.96944 11.607C2.44274 9.22755 3.61099 7.04191 5.32645 5.32645C7.04192 3.61098 9.22756 2.44273 11.607 1.96944C13.9864 1.49614 16.4527 1.73906 18.6941 2.66746C20.9355 3.59586 22.8512 5.16806 24.199 7.18523C25.5468 9.20241 26.2663 11.574 26.2663 14C26.2628 17.2522 24.9694 20.3701 22.6697 22.6697C20.3701 24.9694 17.2522 26.2628 14 26.2663Z" fill="white"/>
<path d="M20.1111 13.4H14.7778V7.8C14.7778 7.58783 14.6841 7.38434 14.5174 7.23431C14.3507 7.08428 14.1246 7 13.8889 7C13.6531 7 13.427 7.08428 13.2604 7.23431C13.0937 7.38434 13 7.58783 13 7.8V14.2C13 14.4122 13.0937 14.6157 13.2604 14.7657C13.427 14.9157 13.6531 15 13.8889 15H20.1111C20.3469 15 20.573 14.9157 20.7397 14.7657C20.9064 14.6157 21 14.4122 21 14.2C21 13.9878 20.9064 13.7843 20.7397 13.6343C20.573 13.4843 20.3469 13.4 20.1111 13.4Z" fill="white"/>
</svg>
