<svg width="23" height="23" viewBox="0 0 23 23" fill="none" xmlns="http://www.w3.org/2000/svg">
<path d="M11.4717 6.29819C10.4485 6.29819 9.44824 6.60161 8.59746 7.17009C7.74668 7.73856 7.08357 8.54655 6.692 9.49189C6.30043 10.4372 6.19798 11.4774 6.3976 12.481C6.59722 13.4846 7.08995 14.4064 7.81348 15.1299C8.53701 15.8535 9.45884 16.3462 10.4624 16.5458C11.466 16.7454 12.5062 16.643 13.4515 16.2514C14.3969 15.8598 15.2049 15.1967 15.7733 14.346C16.3418 13.4952 16.6452 12.4949 16.6452 11.4717C16.6434 10.1002 16.0978 8.78529 15.128 7.81545C14.1581 6.84561 12.8433 6.29998 11.4717 6.29819ZM11.4717 15.2956C10.7154 15.2956 9.9761 15.0713 9.34726 14.6512C8.71842 14.231 8.2283 13.6338 7.93888 12.935C7.64946 12.2363 7.57373 11.4675 7.72128 10.7257C7.86882 9.98393 8.23302 9.30258 8.7678 8.7678C9.30258 8.23302 9.98393 7.86882 10.7257 7.72128C11.4675 7.57373 12.2363 7.64946 12.935 7.93888C13.6338 8.2283 14.231 8.71842 14.6512 9.34726C15.0713 9.9761 15.2956 10.7154 15.2956 11.4717C15.2956 12.4859 14.8927 13.4585 14.1756 14.1756C13.4585 14.8927 12.4859 15.2956 11.4717 15.2956ZM16.8702 0H6.07326C4.46308 0.00178611 2.91936 0.642219 1.78079 1.78079C0.642219 2.91936 0.00178611 4.46308 0 6.07326V16.8702C0.00178611 18.4803 0.642219 20.0241 1.78079 21.1626C2.91936 22.3012 4.46308 22.9416 6.07326 22.9434H16.8702C18.4803 22.9416 20.0241 22.3012 21.1626 21.1626C22.3012 20.0241 22.9416 18.4803 22.9434 16.8702V6.07326C22.9416 4.46308 22.3012 2.91936 21.1626 1.78079C20.0241 0.642219 18.4803 0.00178611 16.8702 0ZM21.5938 16.8702C21.5938 18.1229 21.0961 19.3244 20.2103 20.2103C19.3244 21.0961 18.1229 21.5938 16.8702 21.5938H6.07326C4.82047 21.5938 3.61899 21.0961 2.73314 20.2103C1.84728 19.3244 1.34961 18.1229 1.34961 16.8702V6.07326C1.34961 4.82047 1.84728 3.61899 2.73314 2.73314C3.61899 1.84728 4.82047 1.34961 6.07326 1.34961H16.8702C18.1229 1.34961 19.3244 1.84728 20.2103 2.73314C21.0961 3.61899 21.5938 4.82047 21.5938 6.07326V16.8702ZM18.4447 5.62338C18.4447 5.84583 18.3787 6.06327 18.2552 6.24822C18.1316 6.43317 17.9559 6.57733 17.7504 6.66245C17.5449 6.74757 17.3188 6.76985 17.1006 6.72645C16.8824 6.68306 16.682 6.57594 16.5248 6.41865C16.3675 6.26136 16.2604 6.06096 16.217 5.8428C16.1736 5.62463 16.1958 5.3985 16.281 5.19299C16.3661 4.98748 16.5102 4.81183 16.6952 4.68825C16.8801 4.56467 17.0976 4.49871 17.32 4.49871C17.6183 4.49871 17.9044 4.6172 18.1153 4.82812C18.3262 5.03904 18.4447 5.3251 18.4447 5.62338Z" fill="#E43117"/>
</svg>
