<svg width="28" height="34" viewBox="0 0 28 34" fill="none" xmlns="http://www.w3.org/2000/svg">
<path fill-rule="evenodd" clip-rule="evenodd" d="M13.7752 19.5029C12.7135 19.5029 11.6757 19.1881 10.7929 18.5982C9.91015 18.0084 9.22213 17.17 8.81584 16.1892C8.40955 15.2083 8.30325 14.129 8.51038 13.0877C8.7175 12.0464 9.22875 11.09 9.97947 10.3392C10.7302 9.58852 11.6867 9.07727 12.7279 8.87015C13.7692 8.66303 14.8485 8.76933 15.8294 9.17562C16.8103 9.58191 17.6486 10.2699 18.2385 11.1527C18.8283 12.0354 19.1431 13.0733 19.1431 14.135C19.1412 15.558 18.5751 16.9223 17.5688 17.9286C16.5625 18.9348 15.1983 19.501 13.7752 19.5029ZM13.7752 7.7643C12.5154 7.76423 11.2838 8.13775 10.2363 8.83761C9.18879 9.53747 8.37233 10.5322 7.89017 11.6961C7.40802 12.86 7.28183 14.1408 7.52756 15.3764C7.7733 16.612 8.37992 17.747 9.27071 18.6378C10.1615 19.5286 11.2965 20.1353 12.5321 20.3811C13.7677 20.6269 15.0484 20.5008 16.2123 20.0187C17.3762 19.5366 18.371 18.7202 19.071 17.6727C19.7709 16.6252 20.1445 15.3937 20.1445 14.1339C20.1426 12.4452 19.471 10.8262 18.2769 9.63205C17.0829 8.43792 15.4639 7.76621 13.7752 7.7643ZM21.7542 24.2632C24.5111 20.7073 25.9088 17.2993 25.9088 14.1339C25.9088 10.9159 24.6304 7.82965 22.3549 5.55415C20.0795 3.27866 16.9932 2.0003 13.7752 2.0003C10.5571 2.0003 7.47091 3.27866 5.19541 5.55415C2.91991 7.82965 1.64155 10.9159 1.64155 14.1339C1.64155 17.2996 3.03928 20.7062 5.79621 24.2632C8.10162 27.1501 10.7854 29.7133 13.7752 31.8836C16.765 29.7133 19.4488 27.1501 21.7542 24.2632ZM13.7752 1C10.2931 1.00401 6.95481 2.38905 4.49264 4.85128C2.03048 7.31351 0.645518 10.6519 0.641602 14.1339C0.641602 17.5264 2.10987 21.1405 5.00581 24.876C7.4477 27.9315 10.3007 30.6344 13.4837 32.9076C13.5689 32.9689 13.6713 33.0019 13.7762 33.0019C13.8812 33.0019 13.9835 32.9689 14.0687 32.9076C17.2509 30.6341 20.1032 27.9313 22.5445 24.876C25.4401 21.1405 26.9088 17.5264 26.9088 14.1339C26.9048 10.6519 25.5199 7.31351 23.0577 4.85128C20.5956 2.38905 17.2572 1.00401 13.7752 1Z" fill="white" stroke="white" stroke-width="0.6"/>
</svg>
