<svg width="20" height="15" viewBox="0 0 20 15" fill="none" xmlns="http://www.w3.org/2000/svg">
<path fill-rule="evenodd" clip-rule="evenodd" d="M13.0562 7.16106L19.0629 1.59764V12.7249L13.0562 7.16106ZM7.64244 7.80822L1.68667 13.3259H18.3151L12.3573 7.80822L10.3151 9.70054C10.2288 9.78036 10.1167 9.82456 10.0004 9.82456C9.88417 9.82456 9.77204 9.78036 9.68578 9.70054L7.64244 7.80822ZM6.94378 7.16106L0.938 12.7243V1.59696L6.94378 7.16106ZM10 8.69749L18.3529 0.960725H1.64756L10.0004 8.69749H10ZM18.75 0H1.25C0.918606 0.000421506 0.600902 0.135412 0.366571 0.375363C0.13224 0.615315 0.000411634 0.940638 0 1.27998V13.0057C0.000411634 13.3451 0.13224 13.6704 0.366571 13.9104C0.600902 14.1503 0.918606 14.2853 1.25 14.2857H18.75C19.0814 14.2854 19.3992 14.1505 19.6336 13.9105C19.8679 13.6705 19.9997 13.3451 20 13.0057V1.27998C19.9997 0.940601 19.8679 0.615208 19.6336 0.37523C19.3992 0.135253 19.0814 0.000301269 18.75 0Z" fill="white"/>
</svg>
