<svg width="20" height="20" viewBox="0 0 20 20" fill="none" xmlns="http://www.w3.org/2000/svg">
<path d="M12.0817 19.5455C13.0286 19.8485 13.8998 20 14.6953 20C16.021 20 17.1574 19.5833 17.9529 18.7879L19.4301 17.3106C19.771 16.9697 19.9983 16.4773 19.9983 15.947C19.9983 15.4545 19.8089 14.9621 19.4301 14.5833L16.2862 11.4394C15.9453 11.0985 15.4529 10.9091 14.9604 10.9091C14.468 10.9091 13.9756 11.0985 13.5968 11.4773L12.4226 12.6515C12.1953 12.8788 11.8544 12.9167 11.5892 12.7273C10.7938 12.1212 9.99832 11.4773 9.27862 10.7576C8.55893 10.0379 7.87711 9.24242 7.30893 8.44697C7.11953 8.18182 7.15741 7.84091 7.38468 7.61364L8.55892 6.43939C8.89983 6.09848 9.12711 5.60606 9.12711 5.07576C9.12711 4.58333 8.93771 4.09091 8.55892 3.71212L5.41499 0.568182C5.07408 0.227273 4.58165 0 4.05135 0C3.55892 0 3.0665 0.189394 2.68771 0.568182L1.21044 2.04545C-1.36532 4.62121 0.301349 10.303 4.96044 14.9621C7.19529 17.197 9.73317 18.7879 12.0817 19.5455ZM2.15741 2.95455L3.63468 1.47727C3.74832 1.36364 3.89983 1.28788 4.08923 1.28788C4.27862 1.28788 4.43014 1.36364 4.54377 1.47727L7.68771 4.62121C7.80135 4.73485 7.87711 4.88636 7.87711 5.07576C7.87711 5.26515 7.80135 5.41667 7.68771 5.5303L6.51347 6.70455C5.86953 7.34848 5.75589 8.40909 6.32408 9.16667C6.96802 10.0379 7.64983 10.8333 8.44529 11.6288C9.20286 12.3864 10.0362 13.1061 10.9074 13.75C11.665 14.2803 12.7256 14.2045 13.3695 13.5606L14.5438 12.3864C14.771 12.1591 15.2256 12.1591 15.4529 12.3864L18.5968 15.5303C18.7104 15.6439 18.7862 15.7955 18.7862 15.9848C18.7862 16.1742 18.7104 16.3258 18.5968 16.4394L17.0817 17.8788C16.1347 18.8258 14.5059 18.9773 12.4604 18.3333C10.2635 17.6515 7.95286 16.1742 5.90741 14.1288C1.89226 10.0758 0.149834 4.96212 2.15741 2.95455Z" fill="white"/>
</svg>
