<svg width="24" height="22" viewBox="0 0 24 22" fill="none" xmlns="http://www.w3.org/2000/svg">
<path d="M22.8275 0.805175C22.5919 0.609911 22.3079 0.482035 22.0056 0.435103C21.7032 0.388171 21.3938 0.423933 21.1101 0.538598L1.53525 8.44085C1.21893 8.57084 0.949627 8.79396 0.76309 9.0806C0.576553 9.36723 0.481605 9.70382 0.490851 10.0457C0.500097 10.3875 0.613099 10.7185 0.814856 10.9946C1.01661 11.2708 1.29758 11.479 1.62047 11.5917L5.84418 13.0579L8.13303 20.6247C8.1374 20.64 8.1516 20.6499 8.15815 20.6641C8.18174 20.7244 8.21617 20.78 8.25976 20.8279C8.32598 20.9019 8.41147 20.956 8.50667 20.9842C8.5176 20.9885 8.52524 20.9984 8.53617 21.0006H8.54272L8.546 21.0017C8.63052 21.0198 8.71836 21.0153 8.80056 20.9885C8.8093 20.9864 8.81804 20.9864 8.82787 20.9831C8.9068 20.9554 8.97823 20.9098 9.03655 20.8498C9.0431 20.8421 9.05403 20.841 9.06058 20.8345L12.3524 17.2007L17.1562 20.9208C17.4479 21.1491 17.8074 21.2726 18.1777 21.2726C18.9796 21.2726 19.6712 20.711 19.8362 19.9277L23.4 2.42758C23.4605 2.13049 23.4391 1.82257 23.3383 1.53665C23.2375 1.25073 23.061 0.997539 22.8275 0.804082V0.805175ZM9.32716 14.4946L8.55474 18.2496L6.94326 12.9202L14.9351 8.75769L9.47574 14.2181C9.40014 14.2937 9.34846 14.3898 9.32716 14.4946ZM18.7655 19.7081C18.745 19.8072 18.6994 19.8993 18.633 19.9756C18.5666 20.052 18.4817 20.11 18.3864 20.144C18.2935 20.1798 18.1928 20.1907 18.0943 20.1758C17.9959 20.1609 17.903 20.1205 17.8248 20.0588L12.6211 16.0285C12.5124 15.9445 12.3759 15.9046 12.239 15.9167C12.1021 15.9289 11.9749 15.9922 11.8826 16.094L9.59155 18.6188L10.3629 14.8748L18.2171 7.01947C18.309 6.92719 18.365 6.80507 18.3749 6.67515C18.3847 6.54523 18.3478 6.41607 18.2708 6.31097C18.1938 6.20587 18.0817 6.13176 17.9549 6.10201C17.828 6.07226 17.6947 6.08883 17.579 6.14873L6.25716 12.0462L1.97772 10.5582C1.86426 10.5207 1.76529 10.4488 1.69461 10.3525C1.62392 10.2561 1.58502 10.1401 1.58332 10.0206C1.57788 9.90011 1.61008 9.78087 1.67547 9.67946C1.74086 9.57805 1.83618 9.49951 1.94822 9.45472L21.5198 1.55246C21.6201 1.50985 21.7303 1.49607 21.838 1.51267C21.9457 1.52927 22.0466 1.57559 22.1294 1.64642C22.2117 1.71305 22.2739 1.80126 22.3091 1.9012C22.3442 2.00113 22.3508 2.10886 22.3282 2.21235L18.7655 19.7092V19.7081Z" fill="#E43117"/>
</svg>
