<svg width="50" height="53" viewBox="0 0 50 53" fill="none" xmlns="http://www.w3.org/2000/svg">
<path d="M24.8378 27.0367L36.4715 20.5959M24.8378 27.0367V49.6244M24.8378 27.0367L3.16981 15.0406M36.4715 20.5959L13.204 7.71426M36.4715 20.5959L46.6914 14.9378M13.204 7.71426L19.9751 3.96558C22.342 2.65519 23.5254 2 24.8378 2C26.1501 2 27.3336 2.65519 29.7004 3.96558L43.6609 11.6946C45.8326 12.8969 46.9185 13.4981 47.5118 14.4553C48.1052 15.4126 48.1052 16.5632 48.1052 18.8644V34.1356C48.1052 36.4368 48.1052 37.5874 47.5118 38.5447C46.9185 39.5019 45.8326 40.1031 43.6609 41.3054L29.7004 49.0344C27.3336 50.3448 26.1501 51 24.8378 51C23.5254 51 22.342 50.3448 19.9751 49.0344L6.01461 41.3054C3.8429 40.1031 2.75705 39.5019 2.16368 38.5447C1.57031 37.5874 1.57031 36.4368 1.57031 34.1356V18.8644C1.57031 16.5632 1.57031 15.4126 2.16368 14.4553C2.75705 13.4981 3.8429 12.8969 6.01461 11.6946L13.204 7.71426Z" stroke="#E43117" stroke-width="3" stroke-linecap="round"/>
</svg>
