<svg width="38" height="53" viewBox="0 0 38 53" fill="none" xmlns="http://www.w3.org/2000/svg">
<path d="M0.90625 51C0.90625 51.8284 1.57782 52.5 2.40625 52.5C3.23468 52.5 3.90625 51.8284 3.90625 51H0.90625ZM34.29 51C34.29 51.8284 34.9615 52.5 35.79 52.5C36.6184 52.5 37.29 51.8284 37.29 51H34.29ZM2.63052 17.6297C1.8114 17.5059 1.04697 18.0695 0.92311 18.8886C0.799251 19.7077 1.36287 20.4721 2.18198 20.596L2.63052 17.6297ZM9.87087 20.0839L10.0263 18.592H10.0263L9.87087 20.0839ZM28.3253 20.0839L28.4808 21.5759H28.4808L28.3253 20.0839ZM36.014 20.596C36.8331 20.4723 37.3969 19.708 37.2731 18.8888C37.1494 18.0697 36.3851 17.506 35.5659 17.6297L36.014 20.596ZM20.5981 2.00007C20.5981 1.17164 19.9265 0.50007 19.0981 0.50007C18.2697 0.50007 17.5981 1.17164 17.5981 2.00007H20.5981ZM17.5981 5.86517C17.5981 6.6936 18.2697 7.36517 19.0981 7.36517C19.9265 7.36517 20.5981 6.6936 20.5981 5.86517H17.5981ZM30.1647 19.736C30.1647 26.3775 25.082 31.7205 19.0981 31.7205V34.7205C26.9422 34.7205 33.1647 27.8235 33.1647 19.736H30.1647ZM19.0981 31.7205C13.1123 31.7205 8.01723 26.3739 8.01723 19.7345H5.01723C5.01723 27.824 11.256 34.7205 19.0981 34.7205V31.7205ZM3.90625 51C3.90625 48.5227 3.90838 46.2808 4.15591 44.262C4.40221 42.2532 4.87977 40.5881 5.75127 39.2442C7.41828 36.6736 10.9252 34.7205 19.0981 34.7205V31.7205C10.5792 31.7205 5.74015 33.7476 3.2342 37.6119C2.01922 39.4854 1.45353 41.6514 1.17821 43.8969C0.904119 46.1323 0.90625 48.5676 0.90625 51H3.90625ZM19.0634 34.7201C27.2549 34.9098 30.7787 36.8583 32.4506 39.3978C33.3192 40.7171 33.795 42.3442 34.0406 44.3189C34.2878 46.3059 34.29 48.5219 34.29 51H37.29C37.29 48.5685 37.2922 46.1555 37.0177 43.9486C36.7417 41.7296 36.1743 39.598 34.9563 37.7481C32.4553 33.9493 27.6332 31.9178 19.1328 31.7209L19.0634 34.7201ZM2.18198 20.596L6.29296 21.2176L6.7415 18.2513L2.63052 17.6297L2.18198 20.596ZM6.36177 21.2264L9.71542 21.5759L10.0263 18.592L6.67269 18.2426L6.36177 21.2264ZM28.4808 21.5759L31.8202 21.2279L31.5093 18.244L28.1699 18.592L28.4808 21.5759ZM31.8888 21.2191L36.014 20.596L35.5659 17.6297L31.4407 18.2528L31.8888 21.2191ZM9.71542 21.5759C15.955 22.226 22.2413 22.226 28.4808 21.5759L28.1699 18.592C22.1371 19.2206 16.0592 19.2206 10.0263 18.592L9.71542 21.5759ZM5.7609 19.393C5.7609 11.6241 11.7897 5.43262 19.0981 5.43262V2.43262C10.0178 2.43262 2.7609 10.0848 2.7609 19.393H5.7609ZM19.0981 5.43262C26.4065 5.43262 32.4353 11.6241 32.4353 19.393H35.4353C35.4353 10.0848 28.1785 2.43262 19.0981 2.43262V5.43262ZM17.5981 2.00007V3.93262H20.5981V2.00007H17.5981ZM17.5981 3.93262V5.86517H20.5981V3.93262H17.5981Z" fill="#E43117"/>
</svg>
