<svg width="46" height="49" viewBox="0 0 46 49" fill="none" xmlns="http://www.w3.org/2000/svg">
<path d="M44 24.9167L45.4759 25.1845V25.1844L44 24.9167ZM42.3346 34.0961L40.8587 33.8284L42.3346 34.0961ZM10.8653 43.5734L9.37142 43.7089L10.8653 43.5734ZM8.9482 22.4399L10.4421 22.3044V22.3044L8.9482 22.4399ZM27.5235 9.2482L29.0018 9.5023V9.5023L27.5235 9.2482ZM25.9593 18.3485L27.4376 18.6026L25.9593 18.3485ZM10.2996 19.2743L9.34756 18.1152L9.34756 18.1152L10.2996 19.2743ZM13.6957 16.4848L14.6478 17.6439H14.6478L13.6957 16.4848ZM19.3164 8.26342L17.8691 7.86954V7.86954L19.3164 8.26342ZM20.4393 4.13725L21.8867 4.53113V4.53113L20.4393 4.13725ZM24.3903 2.1448L23.9511 3.57906L23.9511 3.57906L24.3903 2.1448ZM24.7325 2.24958L25.1717 0.815319L25.1717 0.815318L24.7325 2.24958ZM17.7677 12.0409L19.0762 12.7742V12.7742L17.7677 12.0409ZM27.3104 4.80693L25.8631 5.20081V5.20081L27.3104 4.80693ZM22.0455 2.29788L21.4194 0.934799L21.4194 0.9348L22.0455 2.29788ZM3.86374 45.8091L2.36987 45.9446L3.86374 45.8091ZM1.57031 20.527L3.06418 20.3914C2.99172 19.5927 2.30372 18.9922 1.50249 19.0285C0.701254 19.0648 0.0703125 19.7249 0.0703125 20.527H1.57031ZM42.5241 24.6489L40.8587 33.8284L43.8106 34.3639L45.4759 25.1845L42.5241 24.6489ZM25.7532 45.5H14.7803V48.5H25.7532V45.5ZM12.3592 43.4379L10.4421 22.3044L7.45433 22.5754L9.37142 43.7089L12.3592 43.4379ZM40.8587 33.8284C39.6529 40.4749 33.3368 45.5 25.7532 45.5V48.5C34.6045 48.5 42.3145 42.6099 43.8106 34.3639L40.8587 33.8284ZM26.0452 8.99409L24.481 18.0944L27.4376 18.6026L29.0018 9.5023L26.0452 8.99409ZM11.2517 20.4335L14.6478 17.6439L12.7436 15.3257L9.34756 18.1152L11.2517 20.4335ZM20.7638 8.65731L21.8867 4.53113L18.9919 3.74337L17.8691 7.86954L20.7638 8.65731ZM23.9511 3.57906L24.2933 3.68384L25.1717 0.815318L24.8295 0.710534L23.9511 3.57906ZM19.0762 12.7742C19.8063 11.4715 20.3738 10.0905 20.7638 8.65731L17.8691 7.86954C17.5445 9.06209 17.0712 10.2155 16.4592 11.3076L19.0762 12.7742ZM24.2933 3.68384C25.1235 3.93806 25.683 4.53911 25.8631 5.20081L28.7578 4.41305C28.2841 2.67227 26.8989 1.34421 25.1717 0.815319L24.2933 3.68384ZM21.8867 4.53113C21.979 4.19194 22.2431 3.85777 22.6716 3.66097L21.4194 0.9348C20.2439 1.47473 19.3346 2.48436 18.9919 3.74337L21.8867 4.53113ZM22.6716 3.66097C23.0629 3.48124 23.527 3.44919 23.9511 3.57906L24.8295 0.710534C23.708 0.367118 22.4853 0.445204 21.4194 0.934799L22.6716 3.66097ZM27.8982 22.027H40.128V19.027H27.8982V22.027ZM5.3576 45.6736L3.06418 20.3914L0.0764463 20.6625L2.36987 45.9446L5.3576 45.6736ZM3.07031 45.9037V20.527H0.0703125V45.9037H3.07031ZM2.36987 45.9446C2.34156 45.6325 2.58704 45.5 2.71916 45.5V48.5C4.19847 48.5 5.5021 47.2665 5.3576 45.6736L2.36987 45.9446ZM29.0018 9.5023C29.2931 7.80782 29.2098 6.07387 28.7578 4.41305L25.8631 5.20081C26.2003 6.44013 26.2622 7.73175 26.0452 8.99409L29.0018 9.5023ZM14.7803 45.5C13.4592 45.5 12.4598 44.5471 12.3592 43.4379L9.37142 43.7089C9.62249 46.4767 12.0235 48.5 14.7803 48.5V45.5ZM14.6478 17.6439C16.2459 16.3313 17.9504 14.7832 19.0762 12.7742L16.4592 11.3076C15.6242 12.7976 14.297 14.0498 12.7436 15.3257L14.6478 17.6439ZM45.4759 25.1844C46.0739 21.8887 43.4162 19.027 40.128 19.027V22.027C41.7164 22.027 42.7581 23.3592 42.5241 24.6489L45.4759 25.1844ZM2.71916 45.5C2.84617 45.5 3.07031 45.6154 3.07031 45.9037H0.0703125C0.0703125 47.403 1.32317 48.5 2.71916 48.5V45.5ZM24.481 18.0944C24.1132 20.2339 25.8408 22.027 27.8982 22.027V19.027C27.7284 19.027 27.5996 18.9567 27.5211 18.8685C27.4445 18.7824 27.4224 18.6913 27.4376 18.6026L24.481 18.0944ZM10.4421 22.3044C10.3794 21.6139 10.6654 20.9151 11.2517 20.4335L9.34756 18.1152C8.01884 19.2066 7.29905 20.8636 7.45433 22.5754L10.4421 22.3044Z" fill="#E43117"/>
</svg>
