<svg width="50" height="49" viewBox="0 0 50 49" fill="none" xmlns="http://www.w3.org/2000/svg">
<path d="M15.765 5.22374L15.5721 6.71128L15.765 5.22374ZM20.8842 3.63883L21.8951 4.74703L20.8842 3.63883ZM8.83384 10.0222L7.36014 9.74253L8.83384 10.0222ZM5.67005 14.1715L6.35363 15.5067L5.67005 14.1715ZM3.02257 21.9356L1.68427 22.613L3.02257 21.9356ZM3.02257 27.0644L1.68427 26.387L3.02257 27.0644ZM5.67005 34.8285L6.35363 33.4933L5.67005 34.8285ZM8.83384 38.9778L7.36014 39.2575L8.83384 38.9778ZM15.765 43.7763L15.5721 42.2887L15.765 43.7763ZM20.8842 45.3612L21.8951 44.253L20.8842 45.3612ZM29.4516 45.3612L28.4407 44.253L29.4516 45.3612ZM34.5707 43.7763L34.3778 45.2638L34.5707 43.7763ZM41.5019 38.9778L42.9756 39.2575L41.5019 38.9778ZM44.6657 34.8285L45.3493 36.1637L44.6657 34.8285ZM47.3132 27.0644L48.6515 26.387L47.3132 27.0644ZM47.3132 21.9356L48.6515 22.613L47.3132 21.9356ZM44.6657 14.1715L45.3493 12.8363L44.6657 14.1715ZM41.5019 10.0222L42.9756 9.74253V9.74253L41.5019 10.0222ZM34.5707 5.22374L34.3778 3.7362L34.5707 5.22374ZM29.4516 3.63883L28.4407 4.74703L29.4516 3.63883ZM17.6001 23.4768C17.035 22.871 16.0858 22.8381 15.48 23.4032C14.8743 23.9683 14.8413 24.9174 15.4064 25.5232L17.6001 23.4768ZM22.2797 30.6922L21.1828 31.7154C21.4665 32.0195 21.8638 32.1922 22.2797 32.1922C22.6956 32.1922 23.0928 32.0195 23.3765 31.7154L22.2797 30.6922ZM34.9294 19.331C35.4945 18.7252 35.4615 17.7761 34.8557 17.211C34.25 16.6459 33.3008 16.6788 32.7357 17.2846L34.9294 19.331ZM15.5721 6.71128C17.8693 7.0092 20.1972 6.2958 21.8951 4.74703L19.8733 2.53063C18.8436 3.46989 17.4022 3.9235 15.958 3.7362L15.5721 6.71128ZM10.3075 10.3018C10.7386 8.03049 13.0144 6.37957 15.5721 6.71128L15.958 3.7362C11.9439 3.21562 8.10923 5.795 7.36014 9.74253L10.3075 10.3018ZM6.35363 15.5067C8.41114 14.4533 9.88164 12.5462 10.3075 10.3018L7.36014 9.74253C7.1142 11.0386 6.2551 12.1868 4.98646 12.8363L6.35363 15.5067ZM4.36086 21.2581C3.31096 19.1841 4.13172 16.6443 6.35363 15.5067L4.98646 12.8363C1.36598 14.6899 -0.147276 18.9949 1.68427 22.613L4.36086 21.2581ZM4.36086 27.7419C5.39669 25.6957 5.39669 23.3043 4.36086 21.2581L1.68427 22.613C2.28889 23.8074 2.28889 25.1926 1.68427 26.387L4.36086 27.7419ZM6.35363 33.4933C4.13172 32.3557 3.31096 29.8159 4.36086 27.7419L1.68427 26.387C-0.147276 30.0051 1.36598 34.3101 4.98646 36.1637L6.35363 33.4933ZM10.3075 38.6982C9.88164 36.4538 8.41114 34.5467 6.35363 33.4933L4.98646 36.1637C6.2551 36.8132 7.1142 37.9614 7.36014 39.2575L10.3075 38.6982ZM15.5721 42.2887C13.0144 42.6204 10.7386 40.9695 10.3075 38.6982L7.36014 39.2575C8.10923 43.205 11.9439 45.7844 15.958 45.2638L15.5721 42.2887ZM21.8951 44.253C20.1972 42.7042 17.8693 41.9908 15.5721 42.2887L15.958 45.2638C17.4022 45.0765 18.8436 45.5301 19.8733 46.4694L21.8951 44.253ZM28.4407 44.253C26.6179 45.9157 23.7178 45.9157 21.8951 44.253L19.8733 46.4694C22.8414 49.1769 27.4943 49.1769 30.4625 46.4694L28.4407 44.253ZM34.7636 42.2887C32.4665 41.9908 30.1386 42.7042 28.4407 44.253L30.4625 46.4694C31.4921 45.5301 32.9336 45.0765 34.3778 45.2638L34.7636 42.2887ZM40.0282 38.6982C39.5972 40.9695 37.3214 42.6204 34.7636 42.2887L34.3778 45.2638C38.3918 45.7844 42.2265 43.205 42.9756 39.2575L40.0282 38.6982ZM43.9821 33.4933C41.9246 34.5467 40.4541 36.4538 40.0282 38.6982L42.9756 39.2575C43.2216 37.9614 44.0807 36.8132 45.3493 36.1637L43.9821 33.4933ZM45.9749 27.7419C47.0248 29.8159 46.204 32.3557 43.9821 33.4933L45.3493 36.1637C48.9698 34.3101 50.483 30.0051 48.6515 26.387L45.9749 27.7419ZM45.9749 21.2581C44.9391 23.3043 44.9391 25.6957 45.9749 27.7419L48.6515 26.387C48.0469 25.1926 48.0469 23.8074 48.6515 22.613L45.9749 21.2581ZM43.9821 15.5067C46.204 16.6443 47.0248 19.1841 45.9749 21.2581L48.6515 22.613C50.483 18.9949 48.9698 14.6899 45.3493 12.8363L43.9821 15.5067ZM40.0282 10.3018C40.4541 12.5462 41.9246 14.4533 43.9821 15.5067L45.3493 12.8363C44.0807 12.1868 43.2216 11.0386 42.9756 9.74253L40.0282 10.3018ZM34.7636 6.71128C37.3214 6.37957 39.5972 8.03049 40.0282 10.3018L42.9756 9.74253C42.2265 5.795 38.3918 3.21562 34.3778 3.7362L34.7636 6.71128ZM28.4407 4.74703C30.1386 6.2958 32.4665 7.0092 34.7636 6.71128L34.3778 3.7362C32.9336 3.9235 31.4921 3.46989 30.4625 2.53063L28.4407 4.74703ZM30.4625 2.53063C27.4943 -0.176878 22.8414 -0.176878 19.8733 2.53063L21.8951 4.74703C23.7178 3.08432 26.6179 3.08432 28.4407 4.74703L30.4625 2.53063ZM15.4064 25.5232L21.1828 31.7154L23.3765 29.669L17.6001 23.4768L15.4064 25.5232ZM23.3765 31.7154L34.9294 19.331L32.7357 17.2846L21.1828 29.669L23.3765 31.7154Z" fill="#E43117"/>
</svg>
